<svg xmlns="http://www.w3.org/2000/svg" width="22" height="22" viewBox="0 0 22 22">
  <g id="Group_82" data-name="Group 82" transform="translate(-679 -687)">
    <path id="Ellipse_5" data-name="Ellipse 5" d="M11,2a9,9,0,1,0,9,9,9.01,9.01,0,0,0-9-9m0-2A11,11,0,1,1,0,11,11,11,0,0,1,11,0Z" transform="translate(679 687)"/>
    <path id="Ellipse_6" data-name="Ellipse 6" d="M3.5,1.5a2,2,0,1,0,2,2,2,2,0,0,0-2-2M3.5,0A3.5,3.5,0,1,1,0,3.5,3.5,3.5,0,0,1,3.5,0Z" transform="translate(687 693)"/>
    <path id="Ellipse_7" data-name="Ellipse 7" d="M5.5,1.5A3.779,3.779,0,0,0,1.5,5a3.779,3.779,0,0,0,4,3.5A3.779,3.779,0,0,0,9.5,5a3.779,3.779,0,0,0-4-3.5M5.5,0A5.268,5.268,0,0,1,11,5a5.268,5.268,0,0,1-5.5,5A5.268,5.268,0,0,1,0,5,5.268,5.268,0,0,1,5.5,0Z" transform="translate(685 699)"/>
  </g>
</svg>
