<svg xmlns="http://www.w3.org/2000/svg" width="22" height="22" viewBox="0 0 22 22">
  <g id="Group_81" data-name="Group 81" transform="translate(-665.5 -1180)">
    <path id="Ellipse_4" data-name="Ellipse 4" d="M11,2a9,9,0,1,0,9,9,9.01,9.01,0,0,0-9-9m0-2A11,11,0,1,1,0,11,11,11,0,0,1,11,0Z" transform="translate(665.5 1180)"/>
    <g id="video-game-key" transform="translate(668.47 1184.77)">
      <path id="Path_18" data-name="Path 18" d="M5.773,20.361a.92.92,0,0,1-.6-.222l-.022-.02-.893-.888a.4.4,0,0,1,.564-.567l.879.874a.122.122,0,0,0,.165-.178.4.4,0,0,1,.021-.543l.371-.371a.4.4,0,0,1,.587.023.122.122,0,0,0,.2-.133.123.123,0,0,0-.03-.039l-.024-.022-.736-.742a.4.4,0,1,1,.568-.564l.727.732a.922.922,0,0,1-.87,1.575.922.922,0,0,1-.872,1.086Z" transform="translate(-0.718 -8.001)"/>
      <path id="Path_23" data-name="Path 23" d="M13.4,7.69a3.8,3.8,0,1,1,3.8-3.8A3.8,3.8,0,0,1,13.4,7.69ZM13.4.9a3,3,0,1,0,3,3A3,3,0,0,0,13.4.9Z" transform="translate(-3.326)"/>
      <path id="Path_24" data-name="Path 24" d="M14.828,7.556a2.228,2.228,0,1,1,2.228-2.228A2.231,2.231,0,0,1,14.828,7.556Zm0-3.656a1.428,1.428,0,1,0,1.428,1.428A1.43,1.43,0,0,0,14.828,3.9Z" transform="translate(-4.759 -1.433)"/>
      <path id="Path_25" data-name="Path 25" d="M3.821,16.061H3.8a1.183,1.183,0,0,1-.845-1.99l.01-.011,3.949-3.933a.4.4,0,0,1,.565.567L3.536,14.62a.383.383,0,0,0,.542.541l3.927-3.927a.4.4,0,1,1,.566.566L4.638,15.733l-.01.01A1.178,1.178,0,0,1,3.821,16.061Z" transform="translate(0 -4.734)"/>
    </g>
  </g>
</svg>
